<svg width="64" height="64" viewBox="0 0 64 64" fill="none" xmlns="http://www.w3.org/2000/svg">
<path d="M32.0218 17.6469C24.0719 17.6469 17.6594 24.0594 17.6594 32.0093C17.6594 39.9594 24.0719 46.3719 32.0218 46.3719C39.9718 46.3719 46.3843 39.9594 46.3843 32.0093C46.3843 24.0594 39.9718 17.6469 32.0218 17.6469ZM32.0218 41.3469C26.8844 41.3469 22.6844 37.1594 22.6844 32.0093C22.6844 26.8594 26.8719 22.6719 32.0218 22.6719C37.1718 22.6719 41.3594 26.8594 41.3594 32.0093C41.3594 37.1594 37.1594 41.3469 32.0218 41.3469ZM50.3219 17.0594C50.3219 18.9219 48.8218 20.4094 46.9719 20.4094C45.1095 20.4094 43.6218 18.9094 43.6218 17.0594C43.6218 15.2094 45.1219 13.7094 46.9719 13.7094C48.8218 13.7094 50.3219 15.2094 50.3219 17.0594ZM59.8342 20.4594C59.6218 15.9719 58.5968 11.9969 55.3094 8.7219C52.0342 5.44689 48.0595 4.4219 43.5719 4.19687C38.9469 3.93438 25.0844 3.93438 20.4594 4.19687C15.9844 4.40938 12.0094 5.43438 8.7219 8.70938C5.43438 11.9844 4.4219 15.9594 4.19687 20.4469C3.93438 25.0719 3.93438 38.9344 4.19687 43.5594C4.40938 48.0467 5.43438 52.0218 8.7219 55.297C12.0094 58.5718 15.9719 59.5968 20.4594 59.8218C25.0844 60.0845 38.9469 60.0845 43.5719 59.8218C48.0595 59.6093 52.0342 58.5843 55.3094 55.297C58.5843 52.0218 59.6093 48.0467 59.8342 43.5594C60.097 38.9344 60.097 25.0844 59.8342 20.4594ZM53.8595 48.5219C52.8845 50.9719 50.9968 52.8595 48.5344 53.8467C44.8467 55.3095 36.097 54.9718 32.0218 54.9718C27.9469 54.9718 19.1844 55.297 15.5094 53.8467C13.0594 52.872 11.1719 50.9843 10.1844 48.5219C8.7219 44.8343 9.05937 36.0845 9.05937 32.0093C9.05937 27.9344 8.73438 19.1719 10.1844 15.4969C11.1594 13.0469 13.0469 11.1594 15.5094 10.1719C19.1969 8.70938 27.9469 9.04689 32.0218 9.04689C36.097 9.04689 44.8595 8.7219 48.5344 10.1719C50.9843 11.1469 52.872 13.0344 53.8595 15.4969C55.3219 19.1844 54.9843 27.9344 54.9843 32.0093C54.9843 36.0845 55.3219 44.8467 53.8595 48.5219Z" fill="black"/>
</svg>
