<svg width="64" height="64" viewBox="0 0 64 64" fill="none" xmlns="http://www.w3.org/2000/svg">
<path d="M54 4H10C8.4087 4 6.88259 4.63213 5.75734 5.75734C4.63213 6.88259 4 8.4087 4 10V54C4 55.5914 4.63213 57.1174 5.75734 58.2426C6.88259 59.368 8.4087 60 10 60H27.1563V40.9613H19.2812V32H27.1563V25.17C27.1563 17.4012 31.7812 13.11 38.865 13.11C42.2576 13.11 45.8051 13.715 45.8051 13.715V21.34H41.8963C38.0451 21.34 36.8438 23.73 36.8438 26.1812V32H45.4413L44.0662 40.9613H36.8438V60H54C55.5914 60 57.1174 59.368 58.2426 58.2426C59.368 57.1174 60 55.5914 60 54V10C60 8.4087 59.368 6.88259 58.2426 5.75734C57.1174 4.63213 55.5914 4 54 4Z" fill="black"/>
</svg>
