<svg width="64" height="64" viewBox="0 0 64 64" fill="none" xmlns="http://www.w3.org/2000/svg">
<path d="M61.0387 17.3009C60.3408 14.6731 58.2845 12.6036 55.6736 11.9012C50.9414 10.625 31.9658 10.625 31.9658 10.625C31.9658 10.625 12.9902 10.625 8.25789 11.9012C5.64711 12.6037 3.59088 14.6731 2.893 17.3009C1.625 22.0639 1.625 32.0016 1.625 32.0016C1.625 32.0016 1.625 41.9389 2.893 46.7021C3.59088 49.3299 5.64711 51.313 8.25789 52.0154C12.9902 53.2915 31.9658 53.2915 31.9658 53.2915C31.9658 53.2915 50.9414 53.2915 55.6736 52.0154C58.2845 51.313 60.3408 49.3299 61.0387 46.7021C62.3066 41.9389 62.3066 32.0016 62.3066 32.0016C62.3066 32.0016 62.3066 22.0639 61.0387 17.3009ZM25.7597 41.024V22.9789L41.6195 32.0016L25.7597 41.024Z" fill="black"/>
</svg>
